<svg xmlns="http://www.w3.org/2000/svg" viewBox="0 0 122 42" fill="#cbd5e1"><path d="M82.53 20.2v2.29h-1.44v1.5h1.44v5.1c0 1.74.79 2.44 2.77 2.44.35 0 .68-.04.97-.09v-1.49c-.25.02-.41.04-.68.04-.89 0-1.28-.42-1.28-1.36v-4.65h1.96v-1.5h-1.96v-2.29h-1.78z"></path><path class="b" d="M91.32 31.66c2.64 0 4.26-1.77 4.26-4.7s-1.63-4.69-4.26-4.69-4.27 1.78-4.27 4.69 1.62 4.7 4.27 4.7Zm0-1.59c-1.55 0-2.42-1.14-2.42-3.11s.87-3.1 2.42-3.1 2.42 1.15 2.42 3.1-.88 3.11-2.42 3.11zM96.97 31.49h1.78v-5.34c0-1.27.95-2.12 2.31-2.12.32 0 .85.06 1 .11v-1.76c-.19-.05-.53-.07-.8-.07-1.18 0-2.18.65-2.44 1.54h-.13v-1.39h-1.72v9.04zM106.49 23.8c1.32 0 2.18.92 2.22 2.34h-4.57c.1-1.41 1.02-2.34 2.34-2.34Zm2.22 5.25c-.33.71-1.07 1.1-2.15 1.1-1.43 0-2.35-1-2.41-2.59v-.1h6.38v-.62c0-2.84-1.52-4.56-4.03-4.56s-4.17 1.83-4.17 4.72 1.58 4.66 4.17 4.66c2.07 0 3.51-1 3.92-2.61h-1.72zM70.82 28.15c.14 2.22 1.99 3.64 4.74 3.64 2.94 0 4.78-1.49 4.78-3.86 0-1.87-1.05-2.9-3.6-3.49l-1.37-.34c-1.62-.38-2.27-.89-2.27-1.77 0-1.12 1.02-1.85 2.54-1.85s2.44.71 2.62 1.86h1.88c-.11-2.09-1.95-3.56-4.47-3.56-2.71 0-4.52 1.47-4.52 3.68 0 1.82 1.02 2.91 3.27 3.43l1.6.39c1.64.39 2.37.95 2.37 1.9 0 1.1-1.14 1.9-2.68 1.9-1.66 0-2.81-.75-2.98-1.93h-1.91zM52.33 22.3c-1.23 0-2.29.61-2.84 1.64h-.13v-1.49h-1.72v12.04h1.78v-4.37h.14c.47.95 1.49 1.52 2.78 1.52 2.28 0 3.74-1.8 3.74-4.67s-1.45-4.66-3.75-4.66Zm-.51 7.74c-1.49 0-2.43-1.18-2.43-3.06s.94-3.07 2.44-3.07 2.42 1.15 2.42 3.06-.9 3.07-2.42 3.07zM62.33 22.3c-1.23 0-2.29.61-2.84 1.64h-.13v-1.49h-1.72v12.04h1.78v-4.37h.14c.47.95 1.49 1.52 2.78 1.52 2.28 0 3.74-1.8 3.74-4.67s-1.45-4.66-3.75-4.66Zm-.51 7.74c-1.49 0-2.43-1.18-2.43-3.06s.94-3.07 2.44-3.07 2.42 1.15 2.42 3.06-.9 3.07-2.42 3.07zM44.44 31.49h2.05l-4.48-12.41h-2.07l-4.48 12.41h1.98l1.14-3.3h4.73l1.14 3.3Zm-3.57-10.16h.15l1.8 5.25h-3.75l1.81-5.25zM36.65 9.71v5.99h2.16c1.78 0 2.82-1.1 2.82-3.01s-1.04-2.98-2.82-2.98h-2.16Zm.93.85h1.13c1.24 0 1.98.79 1.98 2.14s-.72 2.15-1.98 2.15h-1.13v-4.3zM44.8 15.79c1.32 0 2.13-.88 2.13-2.35s-.81-2.34-2.13-2.34-2.13.89-2.13 2.34.81 2.35 2.13 2.35Zm0-.79c-.78 0-1.21-.57-1.21-1.56s.44-1.55 1.21-1.55 1.21.57 1.21 1.55S45.57 15 44.8 15zM53.82 11.18h-.89l-.81 3.45h-.07l-.93-3.45h-.85l-.93 3.45h-.07l-.81-3.45h-.9l1.25 4.52h.92l.93-3.33h.07l.93 3.33h.93l1.24-4.52zM54.85 15.7h.89v-2.64c0-.71.42-1.15 1.08-1.15s.98.36.98 1.09v2.7h.89v-2.93c0-1.07-.56-1.68-1.56-1.68-.68 0-1.13.3-1.35.81h-.07v-.72h-.86v4.52zM60.09 15.7h.89V9.42h-.89v6.28zM64.34 15.79c1.32 0 2.13-.88 2.13-2.35s-.81-2.34-2.13-2.34-2.13.89-2.13 2.34.81 2.35 2.13 2.35Zm0-.79c-.78 0-1.21-.57-1.21-1.56s.44-1.55 1.21-1.55 1.21.57 1.21 1.55S65.11 15 64.34 15zM69.13 15.02c-.49 0-.84-.24-.84-.64s.28-.61.9-.65l1.1-.07v.38c0 .56-.5.99-1.17.99Zm-.23.75c.59 0 1.09-.26 1.36-.71h.07v.64h.86v-3.09c0-.95-.64-1.52-1.77-1.52-1.03 0-1.76.5-1.85 1.27h.86c.1-.32.44-.5.94-.5.61 0 .93.27.93.75V13l-1.22.07c-1.07.07-1.68.54-1.68 1.35s.63 1.35 1.51 1.35zM74.21 15.77c.62 0 1.15-.29 1.42-.79h.07v.71h.85V9.41h-.89v2.48h-.07c-.24-.5-.77-.79-1.39-.79-1.14 0-1.88.9-1.88 2.33s.73 2.34 1.88 2.34Zm.25-3.87c.75 0 1.22.59 1.22 1.54s-.46 1.53-1.22 1.53-1.21-.58-1.21-1.54.46-1.53 1.21-1.53zM82.34 15.79c1.32 0 2.13-.88 2.13-2.35s-.81-2.34-2.13-2.34-2.13.89-2.13 2.34.81 2.35 2.13 2.35Zm0-.79c-.78 0-1.21-.57-1.21-1.56s.44-1.55 1.21-1.55 1.21.57 1.21 1.55S83.11 15 82.34 15zM85.65 15.7h.89v-2.64c0-.71.42-1.15 1.08-1.15s.98.36.98 1.09v2.7h.89v-2.93c0-1.07-.56-1.68-1.56-1.68-.68 0-1.13.3-1.35.81h-.07v-.72h-.86v4.52zM93.6 10.06v1.15h-.72v.75h.72v2.55c0 .87.39 1.22 1.39 1.22.17 0 .34-.02.49-.05v-.74c-.12.01-.2.02-.34.02-.44 0-.64-.21-.64-.68v-2.32h.98v-.75h-.98v-1.15h-.89zM96.67 15.7h.89v-2.64c0-.68.41-1.15 1.14-1.15.63 0 .97.37.97 1.09v2.7h.89v-2.92c0-1.07-.59-1.69-1.56-1.69-.68 0-1.16.3-1.38.81h-.07V9.41h-.88v6.28zM103.78 11.85c.66 0 1.09.46 1.11 1.17h-2.28c.05-.71.51-1.17 1.17-1.17Zm1.11 2.63c-.17.35-.54.55-1.07.55-.71 0-1.17-.5-1.2-1.29v-.05h3.19v-.31c0-1.42-.76-2.28-2.02-2.28s-2.08.92-2.08 2.36.79 2.33 2.09 2.33c1.03 0 1.76-.5 1.96-1.31h-.86zM25.77 21.3c.02-1.68.92-3.27 2.36-4.15a5.133 5.133 0 0 0-3.99-2.16c-1.68-.18-3.31 1-4.16 1s-2.19-.99-3.61-.96a5.35 5.35 0 0 0-4.47 2.73c-1.93 3.35-.49 8.27 1.36 10.98.93 1.33 2.01 2.81 3.43 2.75 1.39-.06 1.91-.88 3.58-.88s2.14.88 3.59.85c1.49-.02 2.43-1.33 3.32-2.67.67-.94 1.18-1.99 1.52-3.09a4.821 4.821 0 0 1-2.92-4.4zM23.04 13.21a4.86 4.86 0 0 0 1.11-3.49c-1.24.13-2.39.72-3.21 1.66-.8.92-1.22 2.15-1.14 3.36 1.24.01 2.46-.56 3.24-1.53zM5.32 40.47l-.38.92.38-.92Zm115.15-3.79.92.38-.92-.38Zm-3.79 3.79.38.92-.38-.92Zm0-38.93.38-.92-.38.92Zm3.79 3.79.92-.38-.92.38ZM11.5 2h99V0h-99v2ZM120 11.5v19h2v-19h-2ZM110.5 40h-99v2h99v-2ZM2 30.5v-19H0v19h2Zm9.5 9.5c-1.64 0-2.83 0-3.76-.06-.93-.06-1.53-.18-2.03-.39l-.77 1.85c.79.33 1.64.47 2.66.54 1.02.07 2.28.07 3.9.07v-2ZM0 30.5c0 1.62 0 2.88.07 3.9.07 1.03.21 1.88.54 2.66l1.85-.77c-.21-.5-.33-1.11-.39-2.03-.06-.93-.06-2.12-.06-3.76H0Zm5.7 9.04a6.018 6.018 0 0 1-3.25-3.25l-1.85.77a7.99 7.99 0 0 0 4.33 4.33l.77-1.85ZM120 30.5c0 1.64 0 2.83-.06 3.76-.06.93-.18 1.53-.39 2.03l1.85.77c.33-.79.47-1.64.54-2.66.07-1.02.07-2.28.07-3.9h-2ZM110.5 42c1.62 0 2.88 0 3.9-.07 1.03-.07 1.88-.21 2.66-.54l-.76-1.85c-.5.21-1.11.33-2.03.39-.93.06-2.12.06-3.76.06v2Zm9.04-5.7a6.018 6.018 0 0 1-3.25 3.25l.76 1.85a7.99 7.99 0 0 0 4.33-4.33l-1.85-.77ZM110.5 2c1.64 0 2.83 0 3.76.06.92.06 1.53.18 2.03.39l.76-1.85c-.78-.33-1.64-.47-2.66-.54C113.38 0 112.12 0 110.5 0v2Zm11.5 9.5c0-1.62 0-2.88-.07-3.9-.07-1.03-.21-1.88-.54-2.66l-1.85.77c.21.5.33 1.11.39 2.03.06.93.06 2.12.06 3.76h2Zm-5.7-9.04c1.47.61 2.64 1.78 3.25 3.25l1.85-.77a7.99 7.99 0 0 0-4.33-4.33l-.76 1.85ZM11.5 0C9.88 0 8.62 0 7.6.07 6.57.14 5.72.28 4.94.61l.77 1.85c.5-.21 1.11-.33 2.03-.39.93-.06 2.12-.06 3.76-.06V0ZM2 11.5c0-1.64 0-2.83.06-3.76.06-.93.18-1.53.39-2.03L.6 4.94C.27 5.73.13 6.58.06 7.6 0 8.62 0 9.88 0 11.5h2ZM4.94.61A7.99 7.99 0 0 0 .61 4.94l1.85.77a6.018 6.018 0 0 1 3.25-3.25L4.94.61z"></path></svg>